<?xml version="1.0" encoding="UTF-8"?>
<svg version="1.1" xmlns="http://www.w3.org/2000/svg" width="134" height="144">
<path d="M0 0 C0.64247681 0.14906799 1.28495361 0.29813599 1.94689941 0.45172119 C32.03176022 7.48463011 32.03176022 7.48463011 45.0625 14 C45.79708048 51.39014648 45.42819981 86.39040475 18.0625 115 C17.44890625 115.68835938 16.8353125 116.37671875 16.203125 117.0859375 C10.38801519 123.37321435 3.37669573 127.68664235 -3.9375 132 C-4.92919189 132.59022949 -4.92919189 132.59022949 -5.94091797 133.19238281 C-7.9271138 134.36062056 -9.92761547 135.49808354 -11.9375 136.625 C-12.54795166 136.98013672 -13.15840332 137.33527344 -13.78735352 137.70117188 C-16.67092805 139.26530583 -18.66513236 140.0091375 -21.96484375 139.8984375 C-43.68685194 133.33331019 -63.55484239 116.05476969 -74.87109375 96.69140625 C-86.30581607 75.02691084 -89.18582043 50.96383182 -89 26.75 C-88.99548828 25.61175781 -88.99097656 24.47351563 -88.98632812 23.30078125 C-88.97470214 20.53379591 -88.95836431 17.76692842 -88.9375 15 C-83.26411359 12.02698973 -77.63815098 9.64316663 -71.5625 7.625 C-70.22674927 7.17991089 -70.22674927 7.17991089 -68.86401367 6.72583008 C-58.35846848 3.33819526 -47.61546028 0.90129154 -36.82275391 -1.38134766 C-34.97563203 -1.7774051 -33.13327604 -2.1968526 -31.29833984 -2.64599609 C-20.50812733 -5.16322166 -10.61110312 -2.48254049 0 0 Z " fill="#0C2648" transform="translate(88.9375,4)"/>
<path d="M0 0 C2.875 1.625 2.875 1.625 5 4 C5.66713166 7.55803554 5.43667679 9.24574008 3.625 12.375 C0.60808272 14.24261546 -0.15324123 14.04268676 -3.5625 13.75 C-10.56549385 13.37428051 -14.9064807 17.66179345 -20 22 C-19.81162065 26.0655933 -19.81162065 26.0655933 -19 30 C-16.59256899 32.06454002 -16.59256899 32.06454002 -14 33 C-13.67 32.67 -13.34 32.34 -13 32 C-9.28558261 31.57790711 -7.41000573 31.76825763 -4.125 33.625 C-2 36 -2 36 -1.375 38.9375 C-2.19864033 42.97333761 -3.80812042 44.47618824 -7 47 C-7.99 47 -8.98 47 -10 47 C-10.23589844 47.85851562 -10.47179687 48.71703125 -10.71484375 49.6015625 C-12.13725941 53.36296562 -14.09467251 56.25319589 -16.5625 59.375 C-17.00940186 59.94371826 -17.45630371 60.51243652 -17.91674805 61.09838867 C-25.24246465 70.21762939 -33.92186377 76.22832401 -44 82 C-45.20462891 82.70576172 -45.20462891 82.70576172 -46.43359375 83.42578125 C-50.78136458 85.81746615 -51.87560478 86.02487904 -57 85 C-57 60.91 -57 36.82 -57 12 C-52.38 12 -47.76 12 -43 12 C-43 33.12 -43 54.24 -43 76 C-26.20593802 64.49591247 -26.20593802 64.49591247 -15 48 C-15.20100363 45.89359341 -15.20100363 45.89359341 -16 44 C-17 37.55555556 -17 37.55555556 -17 35 C-20.50206813 32.66528792 -20.95621181 32.94304936 -24.875 33.6875 C-28.87410996 34.17861877 -29.60720307 34.25924597 -33.125 31.9375 C-35.31066372 28.51329351 -35.76204426 26.97956447 -35 23 C-33.4375 20.625 -33.4375 20.625 -31 19 C-27.4375 18.75 -27.4375 18.75 -24 19 C-18.42511544 19 -13.90000123 14.73641057 -10 11 C-9.41521706 7.33074368 -9.41521706 7.33074368 -10 4 C-7.25657347 -0.1151398 -4.81370572 -0.78591114 0 0 Z " fill="#0897C9" transform="translate(121,47)"/>
<path d="M0 0 C0 0.33 0 0.66 0 1 C-1.06359741 1.15033691 -1.06359741 1.15033691 -2.14868164 1.30371094 C-22.70785643 4.24383127 -44.19116468 7.59558234 -63 17 C-63.41710342 31.66041296 -62.67202421 45.73156307 -59 60 C-55.17140894 59.40199745 -52.22764136 58.25098656 -48.8125 56.4375 C-44.20679887 54 -44.20679887 54 -42 54 C-42.103125 53.0925 -42.20625 52.185 -42.3125 51.25 C-42 48 -42 48 -39.875 45.5625 C-37 44 -37 44 -33.9375 44.125 C-31.40479293 44.87942338 -29.32890396 45.78796826 -27 47 C-24.49590954 45.17774081 -22.02735538 43.31239906 -19.5625 41.4375 C-18.85544922 40.92380859 -18.14839844 40.41011719 -17.41992188 39.88085938 C-12.98688221 36.47894859 -12.98688221 36.47894859 -11.1640625 31.25390625 C-11.10992187 30.18011719 -11.05578125 29.10632813 -11 28 C-8.8125 25.5 -8.8125 25.5 -6 24 C-2.875 24 -2.875 24 0 25 C3 28.1 3 28.1 3 31 C8.884005 31.85412976 14.36475121 32.32006735 19.53515625 29.01953125 C22.7424522 26.61171614 25.56822259 24.22046198 28 21 C28.30251441 17.37447542 28.30251441 17.37447542 28 14 C29.5625 11.5625 29.5625 11.5625 32 10 C35.97487617 9.43216055 38.06489221 9.37659481 41.4375 11.625 C43.49791771 14.75683492 43.6767545 16.31544773 43 20 C41 22.875 41 22.875 38 25 C36.11003629 24.86965767 34.22011342 24.73726554 32.33203125 24.58203125 C26.7020139 25.59109634 21.9409163 31.0590837 18 35 C17.896875 36.27875 17.79375 37.5575 17.6875 38.875 C17.34685641 41.70691764 17.17819989 42.77382322 15.375 45.0625 C11.92274662 46.4252316 9.54468114 45.91899141 6 45 C3.5705484 41.3558226 3.83820425 39.28758728 4 35 C3.360625 35.66 2.72125 36.32 2.0625 37 C-1 39 -1 39 -4.9375 38.5625 C-11.63327901 38.13342816 -16.19589684 43.41453299 -20.9609375 47.49609375 C-24 50 -24 50 -27 51 C-27.0825 51.763125 -27.165 52.52625 -27.25 53.3125 C-28 56 -28 56 -29.6875 57.8125 C-32.67334948 59.34577406 -34.67324233 59.27157205 -38 59 C-38.70898438 58.73832031 -39.41796875 58.47664063 -40.1484375 58.20703125 C-44.67865695 57.87812491 -47.841039 60.22227776 -51.6875 62.4375 C-53.21036215 63.29371239 -54.73501943 64.14674225 -56.26171875 64.99609375 C-56.93162842 65.37950928 -57.60153809 65.7629248 -58.29174805 66.15795898 C-60 67 -60 67 -62 67 C-67.21051414 49.16790064 -68.31364612 32.51235934 -68 14 C-48.12975656 4.41908192 -22.24072104 -4.9695384 0 0 Z " fill="#E8EFF2" transform="translate(77,10)"/>
<path d="M0 0 C4.29 0 8.58 0 13 0 C13 18.48 13 36.96 13 56 C2.15187581 50.5759379 2.15187581 50.5759379 0 48 C-0.68547498 44.36352531 -0.58076185 40.79798873 -0.48828125 37.109375 C-0.48120651 36.04962463 -0.47413177 34.98987427 -0.46684265 33.89801025 C-0.43886336 30.51462084 -0.37611521 27.13288884 -0.3125 23.75 C-0.28742184 21.45575307 -0.26460784 19.1614802 -0.24414062 16.8671875 C-0.18902454 11.24415347 -0.10272466 5.62235769 0 0 Z " fill="#0A95CD" transform="translate(46,73)"/>
<path d="M0 0 C0 0.33 0 0.66 0 1 C-1.06359741 1.15033691 -1.06359741 1.15033691 -2.14868164 1.30371094 C-22.70785643 4.24383127 -44.19116468 7.59558234 -63 17 C-63.41710342 31.66041296 -62.67202421 45.73156307 -59 60 C-55.17140894 59.40199745 -52.22764136 58.25098656 -48.8125 56.4375 C-44.20679887 54 -44.20679887 54 -42 54 C-41.87625 53.195625 -41.7525 52.39125 -41.625 51.5625 C-41.315625 50.2940625 -41.315625 50.2940625 -41 49 C-40.01 48.505 -40.01 48.505 -39 48 C-38.34 50.31 -37.68 52.62 -37 55 C-34.36 54.67 -31.72 54.34 -29 54 C-29.375 55.9375 -29.375 55.9375 -30 58 C-32.76090993 59.38045497 -34.93218316 59.12030654 -38 59 C-39.06734375 58.61134766 -39.06734375 58.61134766 -40.15625 58.21484375 C-44.68217333 57.87291273 -47.84489138 60.22449639 -51.6875 62.4375 C-53.21036215 63.29371239 -54.73501943 64.14674225 -56.26171875 64.99609375 C-56.93162842 65.37950928 -57.60153809 65.7629248 -58.29174805 66.15795898 C-60 67 -60 67 -62 67 C-67.21051414 49.16790064 -68.31364612 32.51235934 -68 14 C-48.12975656 4.41908192 -22.24072104 -4.9695384 0 0 Z " fill="#EAECEF" transform="translate(77,10)"/>
<path d="M0 0 C4.29 0 8.58 0 13 0 C13 9.57 13 19.14 13 29 C6.99625629 25.99812814 3.19780066 21.90621044 0 16 C-1.03946645 10.7033161 -0.5418917 5.33194674 0 0 Z " fill="#079ECC" transform="translate(27,86)"/>
<path d="M0 0 C2.875 1.625 2.875 1.625 5 4 C5.66713166 7.55803554 5.43667679 9.24574008 3.625 12.375 C0.60808272 14.24261546 -0.15324123 14.04268676 -3.5625 13.75 C-9.7761415 13.40889505 -13.06060249 16.48266541 -17.65234375 20.34765625 C-18.42707031 20.89292969 -19.20179687 21.43820313 -20 22 C-20.99 21.67 -21.98 21.34 -23 21 C-22.0615625 20.35933594 -21.123125 19.71867187 -20.15625 19.05859375 C-18.93663678 18.18610122 -17.71793348 17.31233579 -16.5 16.4375 C-15.87996094 16.01919922 -15.25992188 15.60089844 -14.62109375 15.16992188 C-12.84606591 13.87278614 -11.38033359 12.71415974 -10 11 C-9.59317419 7.3740545 -9.59317419 7.3740545 -10 4 C-7.25657347 -0.1151398 -4.81370572 -0.78591114 0 0 Z " fill="#01AFC5" transform="translate(121,47)"/>
<path d="M0 0 C2.67780743 0.65578958 4.68845269 1.39340154 7.0625 2.75 C7.7225 3.08 8.3825 3.41 9.0625 3.75 C8.0725 6.39 7.0825 9.03 6.0625 11.75 C5.4025 11.42 4.7425 11.09 4.0625 10.75 C2.33 11.0284375 2.33 11.0284375 0.5625 11.3125 C-0.5925 11.456875 -1.7475 11.60125 -2.9375 11.75 C-5.29703094 9.39046906 -5.42891413 7.97104383 -5.9375 4.75 C-6.9275 5.245 -6.9275 5.245 -7.9375 5.75 C-6.19852041 1.73697017 -4.72554364 -0.40217393 0 0 Z " fill="#ECF0F4" transform="translate(42.9375,54.25)"/>
<path d="M0 0 C1.8125 0.1875 1.8125 0.1875 4 1 C7 5.17857143 7 5.17857143 7 8 C8.32 8.33 9.64 8.66 11 9 C9.205625 8.6596875 9.205625 8.6596875 7.375 8.3125 C0.49918546 8.20283789 -4.1156377 13.28585986 -9.05859375 17.49609375 C-12 20 -12 20 -14 21 C-14.4375 18.84375 -14.4375 18.84375 -14 16 C-11.36225379 13.26019814 -8.09603677 11.25537669 -4.9765625 9.10546875 C-3.18823579 7.8098443 -1.53218551 6.59146649 0 5 C0.58861292 2.26377482 0.58861292 2.26377482 0 0 Z " fill="#E5E8EC" transform="translate(65,40)"/>
<path d="M0 0 C0.33 0 0.66 0 1 0 C1.66 2.31 2.32 4.62 3 7 C5.64 6.67 8.28 6.34 11 6 C10.625 7.9375 10.625 7.9375 10 10 C6.19044361 11.90477819 2.59283679 11.17565535 -1.375 10 C-2.24125 9.67 -3.1075 9.34 -4 9 C-3.52418802 7.68628013 -3.04424851 6.37405454 -2.5625 5.0625 C-2.29566406 4.33160156 -2.02882812 3.60070313 -1.75390625 2.84765625 C-1 1 -1 1 0 0 Z " fill="#EAEFF3" transform="translate(37,58)"/>
<path d="M0 0 C0.625 2.375 0.625 2.375 1 5 C-1 7 -1 7 -3.5 7.25 C-6 7 -6 7 -8 5 C-7.75 2.4375 -7.75 2.4375 -7 0 C-4.3333581 -1.33332095 -2.83319697 -0.67102033 0 0 Z " fill="#18ACCD" transform="translate(116,24)"/>
<path d="M0 0 C2.5 0.125 2.5 0.125 3.5 1.125 C3.54080783 3.12458364 3.54254356 5.12545254 3.5 7.125 C0.625 7.75 0.625 7.75 -2.5 8.125 C-3.16 7.465 -3.82 6.805 -4.5 6.125 C-3.77607362 0.18880368 -3.77607362 0.18880368 0 0 Z " fill="#228EDD" transform="translate(42.5,57.875)"/>
<path d="M0 0 C2.64 0 5.28 0 8 0 C8.04254356 1.99954746 8.04080783 4.00041636 8 6 C7 7 7 7 4 7.125 C1 7 1 7 0 6 C-0.04080783 4.00041636 -0.04254356 1.99954746 0 0 Z " fill="#036BC8" transform="translate(108,83)"/>
<path d="M0 0 C2.625 0.375 2.625 0.375 5 1 C5.625 3.375 5.625 3.375 6 6 C5.34 6.66 4.68 7.32 4 8 C1.375 7.625 1.375 7.625 -1 7 C-1.625 4.625 -1.625 4.625 -2 2 C-1.34 1.34 -0.68 0.68 0 0 Z " fill="#1FACD7" transform="translate(71,38)"/>
<path d="M0 0 C3.53571429 0.53571429 3.53571429 0.53571429 5 2 C5.125 4.5 5.125 4.5 5 7 C4 8 4 8 1.5 8.125 C-1 8 -1 8 -2 7 C-2.1875 4.5625 -2.1875 4.5625 -2 2 C-1.34 1.34 -0.68 0.68 0 0 Z " fill="#0169C3" transform="translate(92,69)"/>
<path d="M0 0 C0 4.54868401 -2.37666518 6.34469929 -5.4375 9.5625 C-7.54677247 11.56888113 -9.62441407 13.32829138 -12 15 C-12 12 -12 12 -11 9 C-8.75 6.9921875 -8.75 6.9921875 -6 4.875 C-5.0925 4.17117187 -4.185 3.46734375 -3.25 2.7421875 C-2.5075 2.16726562 -1.765 1.59234375 -1 1 C-0.67 0.67 -0.34 0.34 0 0 Z " fill="#E0E3E8" transform="translate(106,30)"/>
<path d="M0 0 C0.38218767 1.65614657 0.71395102 3.32457024 1 5 C0 6 0 6 -2.5 6.125 C-5 6 -5 6 -6 5 C-6.04063832 3.33382885 -6.042721 1.66611905 -6 0 C-3.50907189 -1.24546405 -2.58919267 -0.7767578 0 0 Z " fill="#73F3EF" transform="translate(90,46)"/>
<path d="M0 0 C0.66 0.33 1.32 0.66 2 1 C1 4 1 4 -1.50390625 5.38671875 C-2.51324219 5.81597656 -3.52257812 6.24523437 -4.5625 6.6875 C-5.57441406 7.12449219 -6.58632813 7.56148438 -7.62890625 8.01171875 C-8.41136719 8.33785156 -9.19382812 8.66398437 -10 9 C-10 8.34 -10 7.68 -10 7 C-10.66 6.67 -11.32 6.34 -12 6 C-10.04669132 4.96958487 -8.08718472 3.9509107 -6.125 2.9375 C-5.03445312 2.36902344 -3.94390625 1.80054687 -2.8203125 1.21484375 C-1.42425781 0.61349609 -1.42425781 0.61349609 0 0 Z " fill="#E0E3E8" transform="translate(33,64)"/>
<path d="M0 0 C0.66 0.99 1.32 1.98 2 3 C-0.09578135 4.5337173 -2.20022537 6.05180837 -4.3125 7.5625 C-4.90740234 8.00013672 -5.50230469 8.43777344 -6.11523438 8.88867188 C-7.68970073 10.00575136 -9.34206919 11.01102259 -11 12 C-11.99 11.67 -12.98 11.34 -14 11 C-9.38 7.37 -4.76 3.74 0 0 Z " fill="#07B1B5" transform="translate(112,57)"/>
<path d="M0 0 C3.72301503 -0.47730962 4.79191085 -0.1387261 8 2 C8.1875 5.625 8.1875 5.625 8 9 C7.01 9.495 7.01 9.495 6 10 C5.34 8.02 4.68 6.04 4 4 C1.03 3.505 1.03 3.505 -2 3 C-1.34 2.01 -0.68 1.02 0 0 Z " fill="#F0F5F7" transform="translate(111,20)"/>
<path d="M0 0 C2.22909871 -0.02714735 4.45829367 -0.04646254 6.6875 -0.0625 C7.92886719 -0.07410156 9.17023438 -0.08570313 10.44921875 -0.09765625 C13.46235454 -0.01478673 16.08275339 0.29160551 19 1 C19 1.33 19 1.66 19 2 C16.58388629 2.24942467 14.16940879 2.47507501 11.75 2.6875 C10.72712891 2.79674805 10.72712891 2.79674805 9.68359375 2.90820312 C6.36937067 3.18170697 4.41316765 3.24621154 1.515625 1.51953125 C1.01546875 1.01808594 0.5153125 0.51664063 0 0 Z " fill="#DEE1E7" transform="translate(58,9)"/>
<path d="M0 0 C2.1640625 -0.29296875 2.1640625 -0.29296875 4.625 -0.1875 C5.44226562 -0.16042969 6.25953125 -0.13335937 7.1015625 -0.10546875 C8.04128906 -0.05326172 8.04128906 -0.05326172 9 0 C8.67 0.99 8.34 1.98 8 3 C4.7 3 1.4 3 -2 3 C-1.34 2.01 -0.68 1.02 0 0 Z " fill="#F3F4F6" transform="translate(54,10)"/>
<path d="M0 0 C0.8971875 0.309375 0.8971875 0.309375 1.8125 0.625 C0.8225 1.12 0.8225 1.12 -0.1875 1.625 C0.4725 2.285 1.1325 2.945 1.8125 3.625 C-3.8125 5.625 -3.8125 5.625 -7.1875 5.625 C-5.69046729 2.17030914 -4.27938051 -0.73360809 0 0 Z " fill="#D3DCE5" transform="translate(42.1875,54.375)"/>
<path d="M0 0 C2.3125 -0.1875 2.3125 -0.1875 5 0 C5.99 0.99 6.98 1.98 8 3 C4.7 3.66 1.4 4.32 -2 5 C-1.34 3.35 -0.68 1.7 0 0 Z " fill="#E3E6EA" transform="translate(48,11)"/>
<path d="M0 0 C0 3.66666667 0 7.33333333 0 11 C-2.24197388 9.22510401 -2.94326323 8.37824511 -3.375 5.5 C-2.94326323 2.62175489 -2.24197388 1.77489599 0 0 Z " fill="#03C0D1" transform="translate(115,49)"/>
<path d="M0 0 C0.66 0.33 1.32 0.66 2 1 C2 1.99 2 2.98 2 4 C1.34 4 0.68 4 0 4 C-0.33 4.66 -0.66 5.32 -1 6 C-1.33 5.67 -1.66 5.34 -2 5 C-2.33 6.65 -2.66 8.3 -3 10 C-3.33 10 -3.66 10 -4 10 C-4.25 7.25 -4.25 7.25 -4 4 C-2 1.625 -2 1.625 0 0 Z " fill="#D5DDE4" transform="translate(109,20)"/>
<path d="M0 0 C0.33 0 0.66 0 1 0 C1 1.98 1 3.96 1 6 C0.01 6.33 -0.98 6.66 -2 7 C-2.125 4.625 -2.125 4.625 -2 2 C-1.34 1.34 -0.68 0.68 0 0 Z M-3 7 C-2.67 7.66 -2.34 8.32 -2 9 C-2.66 8.67 -3.32 8.34 -4 8 C-3.67 7.67 -3.34 7.34 -3 7 Z " fill="#F5F7FA" transform="translate(37,58)"/>
<path d="M0 0 C2.04119788 1.61594832 4.04072937 3.2856382 6 5 C6 5.66 6 6.32 6 7 C3.08482708 5.92598892 1.22189824 5.22189824 -1 3 C-0.67 2.01 -0.34 1.02 0 0 Z " fill="#0698B1" transform="translate(100,75)"/>
</svg>
